# xmcd CD database file
#
# Track frame offsets:
#	150
#	21797
#	44450
#	59720
#	80725
#	97375
#	118925
#	142030
#	169270
#	185217
#	206120
#	235182
#	265371
#	304804
#
# Disc length: 4475 seconds
#
# Revision: 0
# Processed by: cddbd v1.4PL0 Copyright (c) Steve Scherf et al.
# Submitted via: CDex 1.51
#
DISCID=e311790e
DTITLE=oscar peterson - dimension vol.1
DYEAR=1900
DGENRE=Jazz
TTITLE0=that old black magic
TTITLE1=tenderly
TTITLE2=how high the moon
TTITLE3=the way you look tonight
TTITLE4=you are too beautiful
TTITLE5=smedley
TTITLE6=someday my prince will come
TTITLE7=daytrain
TTITLE8=moonglow
TTITLE9=sweet georgia brown
TTITLE10=c jam blues
TTITLE11=wes' tune
TTITLE12=okie blues
TTITLE13=you can depend on me
EXTD=
EXTT0=
EXTT1=
EXTT2=
EXTT3=
EXTT4=
EXTT5=
EXTT6=
EXTT7=
EXTT8=
EXTT9=
EXTT10=
EXTT11=
EXTT12=
EXTT13=
PLAYORDER=
